<svg width="50" height="50" viewBox="0 0 50 50" fill="none" xmlns="http://www.w3.org/2000/svg">
<g clip-path="url(#clip0_15_1215)">
<path fill-rule="evenodd" clip-rule="evenodd" d="M25 50C38.8071 50 50 38.8071 50 25C50 11.1929 38.8071 0 25 0C11.1929 0 0 11.1929 0 25C0 38.8071 11.1929 50 25 50ZM28.6824 14.5014C30.6476 14.8421 32.5271 15.4371 34.2799 16.2446C34.2951 16.2512 34.3081 16.2621 34.3157 16.2775C37.4212 20.8638 38.955 26.0373 38.3816 31.9932C38.3794 32.0184 38.3664 32.0414 38.3458 32.0567C35.9936 33.7911 33.7151 34.844 31.4681 35.5419C31.4323 35.5529 31.3934 35.5397 31.3717 35.509C30.8525 34.7837 30.3809 34.019 29.968 33.2159C29.9441 33.1688 29.9658 33.1118 30.0145 33.0932C30.7635 32.8094 31.4757 32.4697 32.1608 32.0677C32.215 32.0359 32.2182 31.9581 32.1684 31.9209C32.0232 31.8124 31.879 31.6985 31.7413 31.5845C31.7153 31.5637 31.6806 31.5593 31.6513 31.5735C27.2038 33.6366 22.3314 33.6366 17.8309 31.5735C17.8017 31.5604 17.767 31.5648 17.7421 31.5856C17.6044 31.6996 17.4602 31.8124 17.316 31.9209C17.2661 31.9581 17.2705 32.0359 17.3247 32.0677C18.0098 32.4621 18.7219 32.8094 19.4699 33.0943C19.5186 33.1129 19.5414 33.1688 19.5175 33.2159C19.1133 34.0201 18.6417 34.7849 18.1127 35.5102C18.0899 35.5397 18.0521 35.5529 18.0163 35.5419C15.7801 34.844 13.5016 33.7911 11.1494 32.0567C11.1299 32.0414 11.1158 32.0173 11.1137 31.9921C10.6346 26.8405 11.6112 21.6241 15.1763 16.2764C15.1849 16.2621 15.198 16.2512 15.2132 16.2446C16.967 15.436 18.8465 14.8411 20.8107 14.5014C20.8464 14.4959 20.8822 14.5124 20.9007 14.5442C21.1434 14.9759 21.4209 15.5292 21.6085 15.9816C23.6789 15.6639 25.7817 15.6639 27.8954 15.9816C28.0829 15.539 28.3507 14.9759 28.5924 14.5442C28.6108 14.5113 28.6466 14.4948 28.6824 14.5014ZM17.7181 26.0724C17.7181 27.6063 18.8347 28.8552 20.1896 28.8552C21.5662 28.8552 22.661 27.6063 22.661 26.0724C22.6827 24.5494 21.577 23.2895 20.1896 23.2895C18.813 23.2895 17.7181 24.5385 17.7181 26.0724ZM26.8559 26.0724C26.8559 27.6063 27.9724 28.8552 29.3273 28.8552C30.7148 28.8552 31.7987 27.6063 31.7987 26.0724C31.8204 24.5494 30.7148 23.2895 29.3273 23.2895C27.9507 23.2895 26.8559 24.5385 26.8559 26.0724Z"/>
</g>
<defs>
<clipPath id="clip0_15_1215">
<rect width="50" height="50" fill="white"/>
</clipPath>
</defs>
</svg>
