<svg width="51" height="50" viewBox="0 0 51 50" fill="none" xmlns="http://www.w3.org/2000/svg">
<g clip-path="url(#clip0_7_115)">
<path fill-rule="evenodd" clip-rule="evenodd" d="M25.6002 0C11.7931 0 0.60022 11.1929 0.60022 25C0.60022 38.8071 11.7931 50 25.6002 50C39.4073 50 50.6002 38.8071 50.6002 25C50.6002 11.1929 39.4073 0 25.6002 0ZM12.6019 20.706H18.2674V37.7287H12.6019V20.706ZM18.6406 15.4403C18.6039 13.7712 17.4103 12.5 15.4721 12.5C13.534 12.5 12.2669 13.7712 12.2669 15.4403C12.2669 17.0748 13.4966 18.3826 15.3986 18.3826H15.4348C17.4103 18.3826 18.6406 17.0748 18.6406 15.4403ZM32.1764 20.3064C35.9046 20.3064 38.6996 22.7399 38.6996 27.9684L38.6994 37.7287H33.0341V28.6216C33.0341 26.3341 32.2142 24.7731 30.1632 24.7731C28.598 24.7731 27.6657 25.8254 27.2563 26.8419C27.1065 27.206 27.0697 27.7135 27.0697 28.2223V37.7292H21.4034C21.4034 37.7292 21.4781 22.3039 21.4034 20.7066H27.0697V23.1176C27.8216 21.9585 29.1683 20.3064 32.1764 20.3064Z" />
</g>
<defs>
<clipPath id="clip0_7_115">
<rect width="50" height="50" fill="white" transform="translate(0.60022)"/>
</clipPath>
</defs>
</svg>
