<svg width="80" height="81" viewBox="0 0 80 81" fill="none" xmlns="http://www.w3.org/2000/svg">
<g clip-path="url(#clip0_7_19)">
<path d="M28.4776 24.6395L28.4776 30.3568C30.4282 31.5478 32.3788 32.7388 34.3294 33.9298" stroke="#282827" stroke-width="0.75" stroke-miterlimit="10"/>
<path d="M52.5231 24.4496L52.5231 30.7864C50.4837 31.8975 48.4442 33.0066 46.4048 34.1177" stroke="#282827" stroke-width="0.75" stroke-miterlimit="10"/>
<path d="M38.2656 24.6395C38.2778 29.6174 38.29 34.5953 38.3001 39.5712" stroke="#282827" stroke-width="0.75" stroke-miterlimit="10"/>
<path d="M42.4674 24.6395C42.4595 29.5974 42.4536 34.5553 42.4457 39.5112" stroke="#282827" stroke-width="0.75" stroke-miterlimit="10"/>
<path d="M46.4041 31.2141C46.3899 33.3343 46.3777 35.4546 46.3635 37.5748" stroke="#282827" stroke-width="0.75" stroke-miterlimit="10"/>
<path d="M34.3279 31.2141C34.3181 33.3583 34.3082 35.5025 34.2983 37.6467" stroke="#282827" stroke-width="0.75" stroke-miterlimit="10"/>
<path d="M32.4139 36.7415L40.3402 40.5523L40.3402 55.1323" stroke="#282827" stroke-width="0.75" stroke-miterlimit="10"/>
<path d="M48.0537 36.7415L40.3402 40.5517" stroke="#282827" stroke-width="0.75" stroke-miterlimit="10"/>
<path d="M25.6571 37.0752L37.9991 43.1722L37.9991 54.321L33.85 57.1807" stroke="#282827" stroke-width="0.75" stroke-miterlimit="10"/>
<path d="M55.1824 37.0752L42.8405 43.1722L42.8405 54.273L46.9379 56.9888" stroke="#282827" stroke-width="0.75" stroke-miterlimit="10"/>
<path d="M25.6571 27.7369L28.4771 29.5928" stroke="#282827" stroke-width="0.75" stroke-miterlimit="10"/>
<path d="M55.182 27.7369L52.5231 29.5928" stroke="#282827" stroke-width="0.75" stroke-miterlimit="10"/>
<path d="M34.8087 39.8369L34.8087 41.5949" stroke="#282827" stroke-width="0.75" stroke-miterlimit="10"/>
<path d="M46.0081 39.8369L46.0081 41.5949" stroke="#282827" stroke-width="0.75" stroke-miterlimit="10"/>
<path d="M51.7249 40.7162C50.5266 40.6642 49.3284 40.6103 48.1301 40.5583" stroke="#282827" stroke-width="0.75" stroke-miterlimit="10"/>
<path d="M32.4133 40.4305C31.2337 40.6202 30.054 40.812 28.8743 41.0018" stroke="#282827" stroke-width="0.75" stroke-miterlimit="10"/>
<path d="M28.4774 24.9244C29.2236 24.9244 29.8285 24.3823 29.8285 23.7137C29.8285 23.0452 29.2236 22.5031 28.4774 22.5031C27.7311 22.5031 27.1262 23.0451 27.1262 23.7137C27.1262 24.3823 27.7311 24.9244 28.4774 24.9244Z" stroke="#282827" stroke-width="0.75" stroke-miterlimit="10"/>
<path d="M38.2654 24.5388C39.0117 24.5388 39.6166 23.9968 39.6166 23.3282C39.6166 22.6596 39.0117 22.1176 38.2654 22.1176C37.5192 22.1176 36.9143 22.6596 36.9143 23.3282C36.9143 23.9968 37.5192 24.5388 38.2654 24.5388Z" stroke="#282827" stroke-width="0.75" stroke-miterlimit="10"/>
<path d="M42.4683 24.5388C43.2145 24.5388 43.8194 23.9968 43.8194 23.3282C43.8194 22.6596 43.2145 22.1176 42.4683 22.1176C41.7221 22.1176 41.1171 22.6596 41.1171 23.3282C41.1171 23.9968 41.7221 24.5388 42.4683 24.5388Z" stroke="#282827" stroke-width="0.75" stroke-miterlimit="10"/>
<path d="M56.2195 37.6899C56.9657 37.6899 57.5706 37.1479 57.5706 36.4793C57.5706 35.8107 56.9657 35.2687 56.2195 35.2687C55.4733 35.2687 54.8683 35.8107 54.8683 36.4793C54.8683 37.1479 55.4733 37.6899 56.2195 37.6899Z" stroke="#282827" stroke-width="0.75" stroke-miterlimit="10"/>
<path d="M52.5229 24.5388C53.2691 24.5388 53.874 23.9968 53.874 23.3282C53.874 22.6596 53.2691 22.1176 52.5229 22.1176C51.7767 22.1176 51.1718 22.6596 51.1718 23.3282C51.1718 23.9968 51.7767 24.5388 52.5229 24.5388Z" stroke="#282827" stroke-width="0.75" stroke-miterlimit="10"/>
<path d="M49.0432 37.0744C49.7894 37.0744 50.3944 36.5324 50.3943 35.8638C50.3943 35.1952 49.7894 34.6532 49.0432 34.6532C48.297 34.6532 47.6921 35.1952 47.6921 35.8638C47.6921 36.5324 48.297 37.0744 49.0432 37.0744Z" stroke="#282827" stroke-width="0.75" stroke-miterlimit="10"/>
<path d="M31.8289 37.0744C32.5751 37.0744 33.1801 36.5324 33.1801 35.8638C33.1801 35.1952 32.5751 34.6532 31.8289 34.6532C31.0827 34.6532 30.4778 35.1952 30.4778 35.8638C30.4778 36.5324 31.0827 37.0744 31.8289 37.0744Z" stroke="#282827" stroke-width="0.75" stroke-miterlimit="10"/>
<path d="M24.5659 37.6899C25.3121 37.6899 25.9171 37.1479 25.9171 36.4793C25.9171 35.8107 25.3121 35.2687 24.5659 35.2687C23.8197 35.2687 23.2148 35.8107 23.2148 36.4793C23.2148 37.1479 23.8197 37.6899 24.5659 37.6899Z" stroke="#282827" stroke-width="0.75" stroke-miterlimit="10"/>
<path d="M47.6919 58.9384C48.4381 58.9384 49.043 58.3964 49.043 57.7278C49.043 57.0592 48.4381 56.5172 47.6919 56.5172C46.9457 56.5172 46.3408 57.0592 46.3408 57.7278C46.3408 58.3964 46.9457 58.9384 47.6919 58.9384Z" stroke="#282827" stroke-width="0.75" stroke-miterlimit="10"/>
<path d="M40.34 57.4616C41.0862 57.4616 41.6912 56.9196 41.6912 56.251C41.6912 55.5824 41.0862 55.0404 40.34 55.0404C39.5938 55.0404 38.9889 55.5824 38.9889 56.251C38.9889 56.9196 39.5938 57.4616 40.34 57.4616Z" stroke="#282827" stroke-width="0.75" stroke-miterlimit="10"/>
<path d="M32.7546 58.9384C33.5009 58.9384 34.1058 58.3964 34.1058 57.7278C34.1058 57.0592 33.5009 56.5172 32.7546 56.5172C32.0084 56.5172 31.4035 57.0592 31.4035 57.7278C31.4035 58.3964 32.0084 58.9384 32.7546 58.9384Z" stroke="#282827" stroke-width="0.75" stroke-miterlimit="10"/>
<path d="M36.0837 55.6379L36.0837 57.3959" stroke="#282827" stroke-width="0.75" stroke-miterlimit="10"/>
<path d="M44.5431 55.3721L44.5431 57.1301" stroke="#282827" stroke-width="0.75" stroke-miterlimit="10"/>
<path d="M29.9899 26.6758L28.4776 27.7945" stroke="#282827" stroke-width="0.75" stroke-miterlimit="10"/>
<path d="M43.9808 26.6758L42.4685 27.7945" stroke="#282827" stroke-width="0.75" stroke-miterlimit="10"/>
<path d="M50.9961 26.6458L52.4526 27.8245" stroke="#282827" stroke-width="0.75" stroke-miterlimit="10"/>
<path d="M36.6642 26.3321C37.2014 26.7956 37.7365 27.259 38.2736 27.7225" stroke="#282827" stroke-width="0.75" stroke-miterlimit="10"/>
<path d="M44.8096 38.4081L47.2042 38.4081" stroke="#282827" stroke-width="0.75" stroke-miterlimit="10"/>
<path d="M33.6103 38.4081L36.0048 38.4081" stroke="#282827" stroke-width="0.75" stroke-miterlimit="10"/>
<path d="M35.8416 32.3211L34.3293 33.4398" stroke="#282827" stroke-width="0.75" stroke-miterlimit="10"/>
<path d="M44.8096 32.2912L46.2661 33.4698" stroke="#282827" stroke-width="0.75" stroke-miterlimit="10"/>
<path d="M23.2147 25.6866C22.9957 26.3338 23.2003 27.037 23.7415 27.4965C24.3179 27.9859 25.1794 28.1158 25.917 27.8241C25.9356 27.6923 26.0348 26.9352 25.4439 26.3059C24.9191 25.7485 24.0535 25.5108 23.2147 25.6866Z" stroke="#282827" stroke-width="0.75" stroke-miterlimit="10"/>
<path d="M54.9861 27.8222C55.6472 28.1498 56.4571 28.1179 57.0727 27.7403C57.7276 27.3388 58.0499 26.6116 57.8846 25.9024C57.7462 25.8585 56.9364 25.6127 56.1286 26.0003C55.4096 26.3439 54.9696 27.0511 54.9861 27.8222Z" stroke="#282827" stroke-width="0.75" stroke-miterlimit="10"/>
<path d="M51.4941 40.6801C51.6098 41.3493 52.1325 41.9047 52.8432 42.1085C53.5993 42.3262 54.4381 42.1105 54.9628 41.5631C54.9174 41.4372 54.6385 40.7161 53.8038 40.3765C53.0601 40.0768 52.1655 40.1967 51.4941 40.6801Z" stroke="#282827" stroke-width="0.75" stroke-miterlimit="10"/>
<path d="M25.748 42.2783C26.3451 42.6919 27.1508 42.7718 27.8243 42.4841C28.5412 42.1765 28.9833 41.5032 28.942 40.7801C28.8119 40.7181 28.0557 40.3645 27.1901 40.6342C26.4215 40.876 25.8637 41.5132 25.748 42.2783Z" stroke="#282827" stroke-width="0.75" stroke-miterlimit="10"/>
<path d="M33.8808 28.1006C33.259 28.4862 32.9325 29.1494 33.0358 29.8106C33.1474 30.5158 33.7321 31.0972 34.513 31.279C34.6184 31.1871 35.2237 30.6477 35.1968 29.8266C35.172 29.0975 34.6597 28.4302 33.8808 28.1006Z" stroke="#282827" stroke-width="0.75" stroke-miterlimit="10"/>
<path d="M47.0802 28.1006C46.3489 28.2704 45.7849 28.7918 45.6279 29.4451C45.4605 30.1403 45.7849 30.8674 46.448 31.279C46.5823 31.225 47.3571 30.9054 47.6484 30.1263C47.9087 29.4351 47.6855 28.65 47.0802 28.1006Z" stroke="#282827" stroke-width="0.75" stroke-miterlimit="10"/>
<path d="M40.4041 36.074C39.7224 36.3657 39.2802 36.975 39.2678 37.6422C39.2534 38.3534 39.7265 39.0106 40.464 39.3023C40.5859 39.2264 41.278 38.7789 41.3958 37.9659C41.5011 37.2427 41.1148 36.5095 40.4041 36.074Z" stroke="#282827" stroke-width="0.75" stroke-miterlimit="10"/>
</g>
<g filter="url(#filter0_d_7_19)">
<ellipse rx="24.9682" ry="24.9794" transform="matrix(1 -0.000198488 -0.000248102 1 40.0255 40.0256)" fill="#211B1B" fill-opacity="0.1" shape-rendering="crispEdges"/>
</g>
<defs>
<filter id="filter0_d_7_19" x="0.057251" y="0.0462036" width="79.9365" height="79.9588" filterUnits="userSpaceOnUse" color-interpolation-filters="sRGB">
<feFlood flood-opacity="0" result="BackgroundImageFix"/>
<feColorMatrix in="SourceAlpha" type="matrix" values="0 0 0 0 0 0 0 0 0 0 0 0 0 0 0 0 0 0 127 0" result="hardAlpha"/>
<feMorphology radius="5" operator="dilate" in="SourceAlpha" result="effect1_dropShadow_7_19"/>
<feOffset/>
<feGaussianBlur stdDeviation="5"/>
<feComposite in2="hardAlpha" operator="out"/>
<feColorMatrix type="matrix" values="0 0 0 0 0 0 0 0 0 0 0 0 0 0 0 0 0 0 0.25 0"/>
<feBlend mode="multiply" in2="BackgroundImageFix" result="effect1_dropShadow_7_19"/>
<feBlend mode="normal" in="SourceGraphic" in2="effect1_dropShadow_7_19" result="shape"/>
</filter>
<clipPath id="clip0_7_19">
<rect width="34.9555" height="36.9695" fill="white" transform="translate(23.0515 22.0436)"/>
</clipPath>
</defs>
</svg>
