<svg width="51" height="50" viewBox="0 0 51 50" fill="none" xmlns="http://www.w3.org/2000/svg">
<g clip-path="url(#clip0_7_111)">
<path fill-rule="evenodd" clip-rule="evenodd" d="M25.3001 50C39.1072 50 50.3001 38.8071 50.3001 25C50.3001 11.1929 39.1072 0 25.3001 0C11.493 0 0.30011 11.1929 0.30011 25C0.30011 38.8071 11.493 50 25.3001 50ZM27.3118 24.8092C27.3118 20.4965 23.8396 17 19.5561 17C15.2726 17 11.8001 20.4965 11.8001 24.8092C11.8001 29.122 15.2728 32.6181 19.5561 32.6181C23.8393 32.6181 27.3118 29.122 27.3118 24.8092ZM35.8198 24.8092C35.8198 20.7486 34.0835 17.4575 31.9418 17.4575C29.8 17.4575 28.0641 20.7497 28.0641 24.8092C28.0641 28.8687 29.8003 32.1609 31.9421 32.1609C34.0838 32.1609 35.82 28.8687 35.82 24.8092H35.8198ZM39.3001 24.8092C39.3001 21.1718 38.6893 18.2232 37.9362 18.2232C37.1831 18.2232 36.5726 21.1721 36.5726 24.8092C36.5726 28.4463 37.1829 31.3952 37.9362 31.3952C38.6896 31.3952 39.3001 28.4456 39.3001 24.8092Z" />
</g>
<defs>
<clipPath id="clip0_7_111">
<rect width="50" height="50" fill="white" transform="translate(0.30011)"/>
</clipPath>
</defs>
</svg>
