<svg width="100" height="100" viewBox="0 0 100 100" fill="none" xmlns="http://www.w3.org/2000/svg">
<g clip-path="url(#clip0_14_850)">
<path fill-rule="evenodd" clip-rule="evenodd" d="M50 0C22.3858 0 0 22.3858 0 50C0 77.6142 22.3858 100 50 100C77.6142 100 100 77.6142 100 50C100 22.3858 77.6142 0 50 0ZM48.6075 42.3708L48.5025 40.6406C48.1877 36.1565 50.9506 32.0606 55.3225 30.4719C56.9312 29.9069 59.6592 29.8362 61.4429 30.3306C62.1423 30.5425 63.4715 31.2485 64.4156 31.8842L66.1294 33.0494L68.0179 32.4492C69.0673 32.1312 70.4662 31.6017 71.0956 31.2485C71.6902 30.9308 72.2148 30.7542 72.2148 30.8602C72.2148 31.4604 70.9208 33.5083 69.8367 34.6381C68.3677 36.2271 68.7875 36.3683 71.7602 35.309C73.544 34.7087 73.5788 34.7088 73.2292 35.3796C73.0192 35.7327 71.935 36.9685 70.7808 38.0983C68.8223 40.0404 68.7175 40.2523 68.7175 41.8765C68.7175 44.3833 67.5283 49.609 66.3392 52.469C64.1358 57.8358 59.4144 63.3792 54.6929 66.1685C48.0479 70.0879 39.1994 71.0765 31.75 68.7815C29.2669 68.0046 25 66.0273 25 65.6744C25 65.5683 26.294 65.4271 27.8679 65.3919C31.1554 65.3212 34.4429 64.4031 37.2408 62.779L39.1296 61.6492L36.961 60.9077C33.8833 59.8483 31.1204 57.4121 30.421 55.1171C30.211 54.3756 30.281 54.3402 32.2396 54.3402L34.2681 54.305L32.5544 53.4929C30.5258 52.469 28.6723 50.7388 27.7629 48.9733C27.0983 47.7023 26.2592 44.4892 26.504 44.2421C26.5737 44.1362 27.3083 44.3479 28.1477 44.6304C30.5608 45.5131 30.8756 45.3013 29.4767 43.8183C26.8535 41.135 26.0492 37.145 27.3083 33.3671L27.9029 31.6723L30.211 33.9673C34.9327 38.5927 40.4935 41.3469 46.8587 42.159L48.6075 42.3708Z" fill="white"/>
</g>
<defs>
<clipPath id="clip0_14_850">
<rect width="100" height="100" fill="white"/>
</clipPath>
</defs>
</svg>
